<mxfile host="app.diagrams.net" modified="2024-01-17T08:19:59.325Z" agent="Mozilla/5.0 (Macintosh; Intel Mac OS X 10_15_7) AppleWebKit/537.36 (KHTML, like Gecko) Chrome/120.0.0.0 Safari/537.36 Edg/120.0.0.0" version="22.1.18" etag="nfKyJLJf4oul_cB4GKgs" type="github">
  <diagram name="第 1 页" id="U9AShxxQLP1LBwKCs548">
    <mxGraphModel>
      <root>
        <mxCell id="0" />
        <mxCell id="1" parent="0" />
      </root>
    </mxGraphModel>
  </diagram>
</mxfile>
